<svg width="702" height="846" viewBox="0 0 702 846" fill="none" xmlns="http://www.w3.org/2000/svg">
<g filter="url(#filter0_d_4_2)">
<rect x="112" y="108" width="478" height="622" rx="16" fill="white"/>
<rect x="111" y="107" width="480" height="624" rx="17" stroke="#DCDCDC" stroke-width="2"/>
<rect x="150" y="200" width="373" height="63" rx="10" fill="#EBEBF0"/>
<path d="M170.397 242V220.182H173.689V229.663H184.566V220.182H187.869V242H184.566V232.487H173.689V242H170.397ZM192.407 242V225.636H195.592V242H192.407ZM194.016 223.112C193.462 223.112 192.986 222.927 192.588 222.558C192.197 222.181 192.002 221.734 192.002 221.215C192.002 220.69 192.197 220.242 192.588 219.873C192.986 219.496 193.462 219.308 194.016 219.308C194.57 219.308 195.042 219.496 195.433 219.873C195.83 220.242 196.029 220.69 196.029 221.215C196.029 221.734 195.83 222.181 195.433 222.558C195.042 222.927 194.57 223.112 194.016 223.112ZM204.022 239.017L203.862 240.178C203.756 241.031 203.574 241.918 203.319 242.842C203.07 243.772 202.811 244.635 202.541 245.43C202.278 246.226 202.062 246.858 201.891 247.327H199.633C199.725 246.886 199.853 246.29 200.016 245.537C200.18 244.791 200.339 243.957 200.496 243.033C200.652 242.11 200.769 241.169 200.847 240.21L200.954 239.017H204.022ZM216.364 242V220.182H219.656V229.663H230.533V220.182H233.835V242H230.533V232.487H219.656V242H216.364ZM245.267 242.33C243.732 242.33 242.394 241.979 241.25 241.276C240.107 240.572 239.219 239.589 238.587 238.325C237.955 237.06 237.639 235.583 237.639 233.893C237.639 232.195 237.955 230.711 238.587 229.44C239.219 228.168 240.107 227.181 241.25 226.478C242.394 225.775 243.732 225.423 245.267 225.423C246.801 225.423 248.139 225.775 249.283 226.478C250.426 227.181 251.314 228.168 251.946 229.44C252.578 230.711 252.894 232.195 252.894 233.893C252.894 235.583 252.578 237.06 251.946 238.325C251.314 239.589 250.426 240.572 249.283 241.276C248.139 241.979 246.801 242.33 245.267 242.33ZM245.277 239.656C246.271 239.656 247.095 239.393 247.749 238.868C248.402 238.342 248.885 237.643 249.198 236.769C249.517 235.896 249.677 234.933 249.677 233.882C249.677 232.838 249.517 231.879 249.198 231.006C248.885 230.125 248.402 229.418 247.749 228.886C247.095 228.353 246.271 228.087 245.277 228.087C244.276 228.087 243.445 228.353 242.784 228.886C242.131 229.418 241.644 230.125 241.325 231.006C241.012 231.879 240.856 232.838 240.856 233.882C240.856 234.933 241.012 235.896 241.325 236.769C241.644 237.643 242.131 238.342 242.784 238.868C243.445 239.393 244.276 239.656 245.277 239.656ZM259.499 242L254.684 225.636H257.976L261.183 237.653H261.343L264.56 225.636H267.852L271.048 237.6H271.208L274.393 225.636H277.685L272.88 242H269.631L266.307 230.185H266.062L262.738 242H259.499ZM295.54 242.33C293.956 242.33 292.593 241.972 291.449 241.254C290.313 240.53 289.439 239.532 288.828 238.261C288.218 236.989 287.912 235.533 287.912 233.893C287.912 232.231 288.225 230.764 288.85 229.493C289.475 228.214 290.355 227.217 291.492 226.499C292.628 225.782 293.967 225.423 295.508 225.423C296.751 225.423 297.859 225.654 298.832 226.116C299.805 226.57 300.59 227.21 301.186 228.033C301.79 228.857 302.149 229.82 302.262 230.92H299.162C298.992 230.153 298.601 229.493 297.99 228.939C297.387 228.385 296.577 228.108 295.561 228.108C294.673 228.108 293.896 228.342 293.228 228.811C292.568 229.273 292.053 229.933 291.683 230.793C291.314 231.645 291.129 232.653 291.129 233.818C291.129 235.011 291.311 236.041 291.673 236.908C292.035 237.774 292.546 238.445 293.207 238.921C293.874 239.397 294.659 239.635 295.561 239.635C296.165 239.635 296.712 239.525 297.202 239.305C297.699 239.077 298.115 238.754 298.448 238.335C298.789 237.916 299.027 237.412 299.162 236.822H302.262C302.149 237.881 301.804 238.825 301.229 239.656C300.654 240.487 299.883 241.141 298.917 241.616C297.958 242.092 296.833 242.33 295.54 242.33ZM310.431 242.362C309.394 242.362 308.456 242.17 307.618 241.787C306.78 241.396 306.116 240.832 305.626 240.093C305.143 239.354 304.902 238.449 304.902 237.376C304.902 236.453 305.079 235.693 305.434 235.097C305.789 234.5 306.269 234.028 306.873 233.68C307.476 233.332 308.151 233.069 308.897 232.891C309.642 232.714 310.402 232.579 311.176 232.487C312.157 232.373 312.952 232.281 313.563 232.21C314.174 232.131 314.618 232.007 314.895 231.837C315.172 231.666 315.31 231.389 315.31 231.006V230.931C315.31 230.001 315.047 229.28 314.522 228.768C314.003 228.257 313.229 228.001 312.199 228.001C311.127 228.001 310.282 228.239 309.664 228.715C309.053 229.184 308.63 229.706 308.396 230.281L305.402 229.599C305.757 228.605 306.276 227.803 306.958 227.192C307.647 226.574 308.439 226.126 309.333 225.849C310.228 225.565 311.169 225.423 312.157 225.423C312.81 225.423 313.502 225.501 314.234 225.658C314.973 225.807 315.662 226.084 316.301 226.489C316.947 226.893 317.476 227.472 317.888 228.225C318.3 228.971 318.506 229.94 318.506 231.134V242H315.395V239.763H315.267C315.061 240.175 314.752 240.58 314.341 240.977C313.929 241.375 313.4 241.705 312.753 241.968C312.107 242.231 311.333 242.362 310.431 242.362ZM311.123 239.805C312.004 239.805 312.757 239.631 313.382 239.283C314.014 238.935 314.493 238.481 314.82 237.92C315.154 237.352 315.321 236.744 315.321 236.098V233.989C315.207 234.102 314.987 234.209 314.66 234.308C314.341 234.401 313.975 234.482 313.563 234.553C313.151 234.617 312.75 234.678 312.359 234.734C311.968 234.784 311.642 234.827 311.379 234.862C310.761 234.94 310.196 235.072 309.685 235.256C309.181 235.441 308.776 235.707 308.471 236.055C308.172 236.396 308.023 236.851 308.023 237.419C308.023 238.207 308.314 238.804 308.897 239.209C309.479 239.607 310.221 239.805 311.123 239.805ZM325.934 232.284V242H322.749V225.636H325.806V228.3H326.009C326.385 227.433 326.975 226.737 327.777 226.212C328.587 225.686 329.606 225.423 330.835 225.423C331.95 225.423 332.926 225.658 333.764 226.126C334.602 226.588 335.252 227.277 335.714 228.193C336.176 229.109 336.406 230.242 336.406 231.592V242H333.221V231.975C333.221 230.789 332.912 229.862 332.294 229.195C331.676 228.52 330.828 228.183 329.748 228.183C329.009 228.183 328.352 228.342 327.777 228.662C327.209 228.982 326.758 229.45 326.424 230.068C326.097 230.679 325.934 231.418 325.934 232.284ZM352.165 220.182V242H348.874V220.182H352.165ZM369.405 242.362C368.368 242.362 367.431 242.17 366.593 241.787C365.755 241.396 365.091 240.832 364.601 240.093C364.118 239.354 363.876 238.449 363.876 237.376C363.876 236.453 364.054 235.693 364.409 235.097C364.764 234.5 365.243 234.028 365.847 233.68C366.451 233.332 367.126 233.069 367.871 232.891C368.617 232.714 369.377 232.579 370.151 232.487C371.131 232.373 371.927 232.281 372.537 232.21C373.148 232.131 373.592 232.007 373.869 231.837C374.146 231.666 374.285 231.389 374.285 231.006V230.931C374.285 230.001 374.022 229.28 373.496 228.768C372.978 228.257 372.204 228.001 371.174 228.001C370.101 228.001 369.256 228.239 368.638 228.715C368.028 229.184 367.605 229.706 367.371 230.281L364.377 229.599C364.732 228.605 365.251 227.803 365.932 227.192C366.621 226.574 367.413 226.126 368.308 225.849C369.203 225.565 370.144 225.423 371.131 225.423C371.785 225.423 372.477 225.501 373.209 225.658C373.947 225.807 374.636 226.084 375.275 226.489C375.922 226.893 376.451 227.472 376.863 228.225C377.275 228.971 377.481 229.94 377.481 231.134V242H374.37V239.763H374.242C374.036 240.175 373.727 240.58 373.315 240.977C372.903 241.375 372.374 241.705 371.728 241.968C371.081 242.231 370.307 242.362 369.405 242.362ZM370.098 239.805C370.979 239.805 371.731 239.631 372.356 239.283C372.988 238.935 373.468 238.481 373.795 237.92C374.128 237.352 374.295 236.744 374.295 236.098V233.989C374.182 234.102 373.961 234.209 373.635 234.308C373.315 234.401 372.949 234.482 372.537 234.553C372.126 234.617 371.724 234.678 371.334 234.734C370.943 234.784 370.616 234.827 370.354 234.862C369.736 234.94 369.171 235.072 368.66 235.256C368.155 235.441 367.751 235.707 367.445 236.055C367.147 236.396 366.998 236.851 366.998 237.419C366.998 238.207 367.289 238.804 367.871 239.209C368.454 239.607 369.196 239.805 370.098 239.805ZM393.985 229.631L391.098 230.143C390.978 229.773 390.786 229.422 390.523 229.088C390.267 228.754 389.919 228.481 389.479 228.268C389.039 228.055 388.488 227.948 387.828 227.948C386.926 227.948 386.173 228.151 385.569 228.555C384.966 228.953 384.664 229.468 384.664 230.1C384.664 230.647 384.866 231.087 385.271 231.421C385.676 231.755 386.329 232.028 387.231 232.241L389.831 232.838C391.336 233.186 392.458 233.722 393.197 234.447C393.936 235.171 394.305 236.112 394.305 237.27C394.305 238.25 394.021 239.124 393.453 239.891C392.892 240.651 392.107 241.247 391.098 241.68C390.097 242.114 388.936 242.33 387.615 242.33C385.782 242.33 384.287 241.94 383.13 241.158C381.972 240.37 381.262 239.251 380.999 237.803L384.078 237.334C384.27 238.136 384.664 238.744 385.26 239.156C385.857 239.56 386.635 239.763 387.593 239.763C388.637 239.763 389.472 239.546 390.097 239.113C390.722 238.673 391.034 238.136 391.034 237.504C391.034 236.993 390.843 236.563 390.459 236.215C390.083 235.867 389.504 235.604 388.723 235.427L385.953 234.82C384.426 234.472 383.297 233.918 382.565 233.158C381.841 232.398 381.478 231.435 381.478 230.271C381.478 229.305 381.748 228.46 382.288 227.735C382.828 227.011 383.574 226.446 384.525 226.041C385.477 225.629 386.567 225.423 387.796 225.423C389.564 225.423 390.956 225.807 391.972 226.574C392.988 227.334 393.659 228.353 393.985 229.631ZM410.069 229.631L407.182 230.143C407.062 229.773 406.87 229.422 406.607 229.088C406.351 228.754 406.003 228.481 405.563 228.268C405.123 228.055 404.572 227.948 403.912 227.948C403.01 227.948 402.257 228.151 401.653 228.555C401.05 228.953 400.748 229.468 400.748 230.1C400.748 230.647 400.95 231.087 401.355 231.421C401.76 231.755 402.413 232.028 403.315 232.241L405.915 232.838C407.42 233.186 408.542 233.722 409.281 234.447C410.02 235.171 410.389 236.112 410.389 237.27C410.389 238.25 410.105 239.124 409.537 239.891C408.976 240.651 408.191 241.247 407.182 241.68C406.181 242.114 405.02 242.33 403.699 242.33C401.866 242.33 400.371 241.94 399.214 241.158C398.056 240.37 397.346 239.251 397.083 237.803L400.162 237.334C400.354 238.136 400.748 238.744 401.344 239.156C401.941 239.56 402.719 239.763 403.677 239.763C404.721 239.763 405.556 239.546 406.181 239.113C406.806 238.673 407.118 238.136 407.118 237.504C407.118 236.993 406.927 236.563 406.543 236.215C406.167 235.867 405.588 235.604 404.807 235.427L402.037 234.82C400.51 234.472 399.381 233.918 398.649 233.158C397.925 232.398 397.562 231.435 397.562 230.271C397.562 229.305 397.832 228.46 398.372 227.735C398.912 227.011 399.657 226.446 400.609 226.041C401.561 225.629 402.651 225.423 403.88 225.423C405.648 225.423 407.04 225.807 408.056 226.574C409.072 227.334 409.743 228.353 410.069 229.631ZM413.891 242V225.636H417.077V242H413.891ZM415.5 223.112C414.946 223.112 414.47 222.927 414.072 222.558C413.682 222.181 413.487 221.734 413.487 221.215C413.487 220.69 413.682 220.242 414.072 219.873C414.47 219.496 414.946 219.308 415.5 219.308C416.054 219.308 416.526 219.496 416.917 219.873C417.315 220.242 417.513 220.69 417.513 221.215C417.513 221.734 417.315 222.181 416.917 222.558C416.526 222.927 416.054 223.112 415.5 223.112ZM433.624 229.631L430.737 230.143C430.616 229.773 430.425 229.422 430.162 229.088C429.906 228.754 429.558 228.481 429.118 228.268C428.677 228.055 428.127 227.948 427.466 227.948C426.564 227.948 425.812 228.151 425.208 228.555C424.604 228.953 424.302 229.468 424.302 230.1C424.302 230.647 424.505 231.087 424.91 231.421C425.314 231.755 425.968 232.028 426.87 232.241L429.469 232.838C430.975 233.186 432.097 233.722 432.836 234.447C433.574 235.171 433.944 236.112 433.944 237.27C433.944 238.25 433.66 239.124 433.091 239.891C432.53 240.651 431.746 241.247 430.737 241.68C429.736 242.114 428.574 242.33 427.253 242.33C425.421 242.33 423.926 241.94 422.768 241.158C421.611 240.37 420.9 239.251 420.638 237.803L423.716 237.334C423.908 238.136 424.302 238.744 424.899 239.156C425.496 239.56 426.273 239.763 427.232 239.763C428.276 239.763 429.111 239.546 429.736 239.113C430.361 238.673 430.673 238.136 430.673 237.504C430.673 236.993 430.481 236.563 430.098 236.215C429.721 235.867 429.143 235.604 428.361 235.427L425.591 234.82C424.064 234.472 422.935 233.918 422.204 233.158C421.479 232.398 421.117 231.435 421.117 230.271C421.117 229.305 421.387 228.46 421.927 227.735C422.466 227.011 423.212 226.446 424.164 226.041C425.116 225.629 426.206 225.423 427.434 225.423C429.203 225.423 430.595 225.807 431.611 226.574C432.626 227.334 433.297 228.353 433.624 229.631ZM445.085 225.636V228.193H436.146V225.636H445.085ZM438.543 221.716H441.729V237.195C441.729 237.813 441.821 238.278 442.006 238.591C442.19 238.896 442.428 239.106 442.719 239.219C443.018 239.326 443.341 239.379 443.689 239.379C443.945 239.379 444.168 239.362 444.36 239.326C444.552 239.29 444.701 239.262 444.808 239.241L445.383 241.872C445.198 241.943 444.935 242.014 444.594 242.085C444.254 242.163 443.827 242.206 443.316 242.213C442.478 242.227 441.697 242.078 440.972 241.766C440.248 241.453 439.662 240.97 439.214 240.317C438.767 239.663 438.543 238.843 438.543 237.856V221.716ZM458.561 248.136C458.085 248.136 457.652 248.097 457.261 248.019C456.871 247.948 456.58 247.87 456.388 247.785L457.155 245.175C457.737 245.331 458.256 245.398 458.71 245.377C459.165 245.356 459.566 245.185 459.914 244.866C460.269 244.546 460.582 244.024 460.852 243.3L461.246 242.213L455.259 225.636H458.668L462.812 238.335H462.982L467.126 225.636H470.546L463.803 244.184C463.49 245.036 463.092 245.757 462.609 246.347C462.126 246.943 461.551 247.391 460.884 247.689C460.216 247.987 459.442 248.136 458.561 248.136ZM479.876 242.33C478.342 242.33 477.003 241.979 475.86 241.276C474.716 240.572 473.828 239.589 473.196 238.325C472.564 237.06 472.248 235.583 472.248 233.893C472.248 232.195 472.564 230.711 473.196 229.44C473.828 228.168 474.716 227.181 475.86 226.478C477.003 225.775 478.342 225.423 479.876 225.423C481.41 225.423 482.749 225.775 483.892 226.478C485.036 227.181 485.923 228.168 486.556 229.44C487.188 230.711 487.504 232.195 487.504 233.893C487.504 235.583 487.188 237.06 486.556 238.325C485.923 239.589 485.036 240.572 483.892 241.276C482.749 241.979 481.41 242.33 479.876 242.33ZM479.887 239.656C480.881 239.656 481.705 239.393 482.358 238.868C483.012 238.342 483.494 237.643 483.807 236.769C484.127 235.896 484.286 234.933 484.286 233.882C484.286 232.838 484.127 231.879 483.807 231.006C483.494 230.125 483.012 229.418 482.358 228.886C481.705 228.353 480.881 228.087 479.887 228.087C478.885 228.087 478.054 228.353 477.394 228.886C476.74 229.418 476.254 230.125 475.934 231.006C475.622 231.879 475.465 232.838 475.465 233.882C475.465 234.933 475.622 235.896 475.934 236.769C476.254 237.643 476.74 238.342 477.394 238.868C478.054 239.393 478.885 239.656 479.887 239.656ZM501.425 235.214V225.636H504.621V242H501.489V239.166H501.319C500.942 240.04 500.338 240.768 499.507 241.35C498.684 241.925 497.657 242.213 496.429 242.213C495.377 242.213 494.447 241.982 493.637 241.521C492.835 241.052 492.203 240.359 491.741 239.443C491.287 238.527 491.059 237.394 491.059 236.045V225.636H494.245V235.661C494.245 236.776 494.554 237.664 495.172 238.325C495.789 238.985 496.592 239.315 497.579 239.315C498.176 239.315 498.769 239.166 499.358 238.868C499.955 238.57 500.449 238.119 500.839 237.515C501.237 236.911 501.432 236.144 501.425 235.214Z" fill="#52525C"/>
<g clip-path="url(#clip0_4_2)">
<path d="M187 339C187 333.477 191.477 329 197 329H530C535.523 329 540 333.477 540 339V382C540 387.523 535.523 392 530 392H197C191.477 392 187 387.523 187 382V339Z" fill="black"/>
<path d="M211.669 371L205.618 349.182H209.08L213.331 366.078H213.533L217.955 349.182H221.385L225.806 366.089H226.009L230.249 349.182H233.722L227.66 371H224.347L219.755 354.658H219.585L214.993 371H211.669ZM239.653 361.284V371H236.468V349.182H239.61V357.3H239.813C240.196 356.419 240.782 355.719 241.57 355.201C242.359 354.683 243.389 354.423 244.66 354.423C245.782 354.423 246.762 354.654 247.6 355.116C248.445 355.577 249.099 356.266 249.561 357.183C250.029 358.092 250.264 359.228 250.264 360.592V371H247.078V360.975C247.078 359.775 246.769 358.844 246.151 358.184C245.534 357.516 244.674 357.183 243.573 357.183C242.82 357.183 242.146 357.342 241.549 357.662C240.96 357.982 240.494 358.45 240.154 359.068C239.82 359.679 239.653 360.418 239.653 361.284ZM259.276 371.362C258.24 371.362 257.302 371.17 256.464 370.787C255.626 370.396 254.962 369.832 254.472 369.093C253.989 368.354 253.747 367.449 253.747 366.376C253.747 365.453 253.925 364.693 254.28 364.097C254.635 363.5 255.115 363.028 255.718 362.68C256.322 362.332 256.997 362.069 257.742 361.891C258.488 361.714 259.248 361.579 260.022 361.487C261.002 361.373 261.798 361.281 262.409 361.21C263.019 361.131 263.463 361.007 263.74 360.837C264.017 360.666 264.156 360.389 264.156 360.006V359.931C264.156 359.001 263.893 358.28 263.367 357.768C262.849 357.257 262.075 357.001 261.045 357.001C259.972 357.001 259.127 357.239 258.509 357.715C257.899 358.184 257.476 358.706 257.242 359.281L254.248 358.599C254.603 357.605 255.122 356.803 255.803 356.192C256.492 355.574 257.284 355.126 258.179 354.849C259.074 354.565 260.015 354.423 261.002 354.423C261.656 354.423 262.348 354.501 263.08 354.658C263.818 354.807 264.507 355.084 265.146 355.489C265.793 355.893 266.322 356.472 266.734 357.225C267.146 357.971 267.352 358.94 267.352 360.134V371H264.241V368.763H264.113C263.907 369.175 263.598 369.58 263.186 369.977C262.774 370.375 262.245 370.705 261.599 370.968C260.953 371.231 260.178 371.362 259.276 371.362ZM259.969 368.805C260.85 368.805 261.602 368.631 262.227 368.283C262.86 367.935 263.339 367.481 263.666 366.92C263.999 366.352 264.166 365.744 264.166 365.098V362.989C264.053 363.102 263.833 363.209 263.506 363.308C263.186 363.401 262.82 363.482 262.409 363.553C261.997 363.617 261.595 363.678 261.205 363.734C260.814 363.784 260.487 363.827 260.225 363.862C259.607 363.94 259.042 364.072 258.531 364.256C258.026 364.441 257.622 364.707 257.316 365.055C257.018 365.396 256.869 365.851 256.869 366.419C256.869 367.207 257.16 367.804 257.742 368.209C258.325 368.607 259.067 368.805 259.969 368.805ZM279.233 354.636V357.193H270.295V354.636H279.233ZM272.692 350.716H275.877V366.195C275.877 366.813 275.969 367.278 276.154 367.591C276.339 367.896 276.577 368.106 276.868 368.219C277.166 368.326 277.489 368.379 277.837 368.379C278.093 368.379 278.317 368.362 278.509 368.326C278.7 368.29 278.849 368.262 278.956 368.241L279.531 370.872C279.347 370.943 279.084 371.014 278.743 371.085C278.402 371.163 277.976 371.206 277.464 371.213C276.626 371.227 275.845 371.078 275.121 370.766C274.396 370.453 273.81 369.97 273.363 369.317C272.915 368.663 272.692 367.843 272.692 366.856V350.716ZM296.822 371.32C295.501 371.32 294.322 370.982 293.285 370.308C292.255 369.626 291.445 368.656 290.856 367.399C290.273 366.135 289.982 364.619 289.982 362.85C289.982 361.082 290.277 359.569 290.866 358.312C291.463 357.055 292.28 356.092 293.317 355.425C294.354 354.757 295.529 354.423 296.843 354.423C297.859 354.423 298.675 354.594 299.293 354.935C299.918 355.268 300.401 355.659 300.742 356.107C301.09 356.554 301.36 356.948 301.552 357.289H301.744V349.182H304.929V371H301.818V368.454H301.552C301.36 368.802 301.083 369.2 300.721 369.647C300.366 370.094 299.876 370.485 299.251 370.819C298.626 371.153 297.816 371.32 296.822 371.32ZM297.525 368.603C298.441 368.603 299.215 368.362 299.847 367.879C300.487 367.388 300.969 366.71 301.296 365.844C301.63 364.977 301.797 363.969 301.797 362.818C301.797 361.682 301.634 360.687 301.307 359.835C300.98 358.983 300.501 358.319 299.869 357.843C299.237 357.367 298.455 357.129 297.525 357.129C296.566 357.129 295.767 357.378 295.128 357.875C294.489 358.372 294.006 359.05 293.679 359.91C293.359 360.769 293.2 361.739 293.2 362.818C293.2 363.912 293.363 364.896 293.69 365.769C294.016 366.643 294.499 367.335 295.138 367.847C295.785 368.351 296.58 368.603 297.525 368.603ZM316.368 371.33C314.834 371.33 313.495 370.979 312.352 370.276C311.208 369.572 310.32 368.589 309.688 367.325C309.056 366.06 308.74 364.583 308.74 362.893C308.74 361.195 309.056 359.711 309.688 358.44C310.32 357.168 311.208 356.181 312.352 355.478C313.495 354.775 314.834 354.423 316.368 354.423C317.902 354.423 319.241 354.775 320.384 355.478C321.528 356.181 322.416 357.168 323.048 358.44C323.68 359.711 323.996 361.195 323.996 362.893C323.996 364.583 323.68 366.06 323.048 367.325C322.416 368.589 321.528 369.572 320.384 370.276C319.241 370.979 317.902 371.33 316.368 371.33ZM316.379 368.656C317.373 368.656 318.197 368.393 318.85 367.868C319.504 367.342 319.987 366.643 320.299 365.769C320.619 364.896 320.779 363.933 320.779 362.882C320.779 361.838 320.619 360.879 320.299 360.006C319.987 359.125 319.504 358.418 318.85 357.886C318.197 357.353 317.373 357.087 316.379 357.087C315.377 357.087 314.546 357.353 313.886 357.886C313.232 358.418 312.746 359.125 312.426 360.006C312.114 360.879 311.958 361.838 311.958 362.882C311.958 363.933 312.114 364.896 312.426 365.769C312.746 366.643 313.232 367.342 313.886 367.868C314.546 368.393 315.377 368.656 316.379 368.656ZM334.604 371.33C332.992 371.33 331.603 370.986 330.439 370.297C329.281 369.601 328.386 368.624 327.754 367.367C327.129 366.103 326.816 364.622 326.816 362.925C326.816 361.249 327.129 359.771 327.754 358.493C328.386 357.214 329.267 356.217 330.396 355.499C331.532 354.782 332.86 354.423 334.38 354.423C335.304 354.423 336.199 354.576 337.065 354.881C337.931 355.187 338.709 355.666 339.398 356.32C340.087 356.973 340.63 357.822 341.028 358.866C341.426 359.903 341.625 361.163 341.625 362.648V363.777H328.617V361.391H338.503C338.503 360.553 338.333 359.81 337.992 359.164C337.651 358.511 337.172 357.996 336.554 357.619C335.943 357.243 335.225 357.055 334.402 357.055C333.507 357.055 332.725 357.275 332.058 357.715C331.397 358.148 330.886 358.717 330.524 359.42C330.169 360.116 329.991 360.872 329.991 361.689V363.553C329.991 364.647 330.183 365.577 330.566 366.344C330.957 367.112 331.5 367.697 332.196 368.102C332.892 368.5 333.706 368.699 334.636 368.699C335.24 368.699 335.79 368.614 336.287 368.443C336.784 368.266 337.214 368.003 337.576 367.655C337.939 367.307 338.216 366.877 338.407 366.366L341.422 366.909C341.181 367.797 340.748 368.575 340.123 369.242C339.505 369.903 338.727 370.418 337.789 370.787C336.859 371.149 335.797 371.33 334.604 371.33ZM357.421 358.631L354.534 359.143C354.413 358.773 354.221 358.422 353.959 358.088C353.703 357.754 353.355 357.481 352.915 357.268C352.474 357.055 351.924 356.948 351.263 356.948C350.361 356.948 349.608 357.151 349.005 357.555C348.401 357.953 348.099 358.468 348.099 359.1C348.099 359.647 348.302 360.087 348.706 360.421C349.111 360.755 349.765 361.028 350.667 361.241L353.266 361.838C354.772 362.186 355.894 362.722 356.633 363.447C357.371 364.171 357.741 365.112 357.741 366.27C357.741 367.25 357.456 368.124 356.888 368.891C356.327 369.651 355.542 370.247 354.534 370.68C353.532 371.114 352.371 371.33 351.05 371.33C349.218 371.33 347.723 370.94 346.565 370.158C345.407 369.37 344.697 368.251 344.434 366.803L347.513 366.334C347.705 367.136 348.099 367.744 348.696 368.156C349.292 368.56 350.07 368.763 351.029 368.763C352.073 368.763 352.907 368.546 353.532 368.113C354.157 367.673 354.47 367.136 354.47 366.504C354.47 365.993 354.278 365.563 353.895 365.215C353.518 364.867 352.939 364.604 352.158 364.427L349.388 363.82C347.861 363.472 346.732 362.918 346.001 362.158C345.276 361.398 344.914 360.435 344.914 359.271C344.914 358.305 345.184 357.46 345.724 356.735C346.263 356.011 347.009 355.446 347.961 355.041C348.912 354.629 350.003 354.423 351.231 354.423C353 354.423 354.392 354.807 355.407 355.574C356.423 356.334 357.094 357.353 357.421 358.631ZM368.554 356V353.955C368.554 353.351 368.667 352.715 368.895 352.048C369.122 351.38 369.438 350.741 369.843 350.13C370.248 349.519 370.724 348.997 371.27 348.564L372.847 349.693C372.414 350.325 372.045 350.986 371.739 351.675C371.434 352.364 371.281 353.113 371.281 353.923V356H368.554ZM373.987 356V353.955C373.987 353.351 374.101 352.715 374.328 352.048C374.555 351.38 374.871 350.741 375.276 350.13C375.681 349.519 376.157 348.997 376.704 348.564L378.28 349.693C377.847 350.325 377.478 350.986 377.172 351.675C376.867 352.364 376.714 353.113 376.714 353.923V356H373.987ZM381.018 377.136V354.636H384.129V357.289H384.395C384.58 356.948 384.846 356.554 385.194 356.107C385.542 355.659 386.025 355.268 386.643 354.935C387.261 354.594 388.078 354.423 389.094 354.423C390.415 354.423 391.594 354.757 392.631 355.425C393.667 356.092 394.481 357.055 395.07 358.312C395.667 359.569 395.965 361.082 395.965 362.85C395.965 364.619 395.67 366.135 395.081 367.399C394.491 368.656 393.682 369.626 392.652 370.308C391.622 370.982 390.447 371.32 389.126 371.32C388.131 371.32 387.318 371.153 386.686 370.819C386.061 370.485 385.571 370.094 385.216 369.647C384.861 369.2 384.587 368.802 384.395 368.454H384.204V377.136H381.018ZM384.14 362.818C384.14 363.969 384.307 364.977 384.64 365.844C384.974 366.71 385.457 367.388 386.089 367.879C386.721 368.362 387.496 368.603 388.412 368.603C389.363 368.603 390.159 368.351 390.798 367.847C391.437 367.335 391.92 366.643 392.247 365.769C392.581 364.896 392.748 363.912 392.748 362.818C392.748 361.739 392.584 360.769 392.258 359.91C391.938 359.05 391.455 358.372 390.809 357.875C390.17 357.378 389.371 357.129 388.412 357.129C387.488 357.129 386.707 357.367 386.068 357.843C385.436 358.319 384.956 358.983 384.63 359.835C384.303 360.687 384.14 361.682 384.14 362.818ZM399.534 371V354.636H402.613V357.236H402.783C403.081 356.355 403.607 355.663 404.36 355.158C405.12 354.647 405.979 354.391 406.938 354.391C407.137 354.391 407.371 354.398 407.641 354.413C407.918 354.427 408.135 354.445 408.291 354.466V357.513C408.163 357.477 407.936 357.438 407.609 357.396C407.282 357.346 406.956 357.321 406.629 357.321C405.876 357.321 405.205 357.481 404.616 357.8C404.033 358.113 403.572 358.55 403.231 359.111C402.89 359.665 402.719 360.297 402.719 361.007V371H399.534ZM411.048 371V354.636H414.233V371H411.048ZM412.656 352.112C412.102 352.112 411.626 351.927 411.229 351.558C410.838 351.181 410.643 350.734 410.643 350.215C410.643 349.69 410.838 349.242 411.229 348.873C411.626 348.496 412.102 348.308 412.656 348.308C413.21 348.308 413.683 348.496 414.073 348.873C414.471 349.242 414.67 349.69 414.67 350.215C414.67 350.734 414.471 351.181 414.073 351.558C413.683 351.927 413.21 352.112 412.656 352.112ZM421.704 361.284V371H418.518V354.636H421.576V357.3H421.778C422.155 356.433 422.744 355.737 423.547 355.212C424.356 354.686 425.376 354.423 426.604 354.423C427.719 354.423 428.696 354.658 429.534 355.126C430.372 355.588 431.022 356.277 431.483 357.193C431.945 358.109 432.176 359.242 432.176 360.592V371H428.991V360.975C428.991 359.789 428.682 358.862 428.064 358.195C427.446 357.52 426.597 357.183 425.518 357.183C424.779 357.183 424.122 357.342 423.547 357.662C422.979 357.982 422.528 358.45 422.194 359.068C421.867 359.679 421.704 360.418 421.704 361.284ZM444.086 354.636V357.193H435.148V354.636H444.086ZM437.545 350.716H440.731V366.195C440.731 366.813 440.823 367.278 441.008 367.591C441.192 367.896 441.43 368.106 441.721 368.219C442.02 368.326 442.343 368.379 442.691 368.379C442.947 368.379 443.17 368.362 443.362 368.326C443.554 368.29 443.703 368.262 443.809 368.241L444.385 370.872C444.2 370.943 443.937 371.014 443.596 371.085C443.256 371.163 442.829 371.206 442.318 371.213C441.48 371.227 440.699 371.078 439.974 370.766C439.25 370.453 438.664 369.97 438.216 369.317C437.769 368.663 437.545 367.843 437.545 366.856V350.716ZM451.168 349.182V351.227C451.168 351.831 451.055 352.467 450.827 353.134C450.607 353.795 450.295 354.43 449.89 355.041C449.485 355.652 449.009 356.178 448.462 356.618L446.886 355.489C447.305 354.878 447.667 354.228 447.972 353.539C448.285 352.85 448.441 352.09 448.441 351.259V349.182H451.168ZM456.591 349.182V351.227C456.591 351.831 456.477 352.467 456.25 353.134C456.03 353.795 455.717 354.43 455.312 355.041C454.908 355.652 454.432 356.178 453.885 356.618L452.308 355.489C452.727 354.878 453.089 354.228 453.395 353.539C453.707 352.85 453.864 352.09 453.864 351.259V349.182H456.591ZM474.331 371.32C473.01 371.32 471.831 370.982 470.795 370.308C469.765 369.626 468.955 368.656 468.366 367.399C467.783 366.135 467.492 364.619 467.492 362.85C467.492 361.082 467.787 359.569 468.376 358.312C468.973 357.055 469.79 356.092 470.827 355.425C471.863 354.757 473.039 354.423 474.353 354.423C475.368 354.423 476.185 354.594 476.803 354.935C477.428 355.268 477.911 355.659 478.252 356.107C478.6 356.554 478.87 356.948 479.062 357.289H479.253V349.182H482.439V371H479.328V368.454H479.062C478.87 368.802 478.593 369.2 478.231 369.647C477.876 370.094 477.385 370.485 476.76 370.819C476.135 371.153 475.326 371.32 474.331 371.32ZM475.035 368.603C475.951 368.603 476.725 368.362 477.357 367.879C477.996 367.388 478.479 366.71 478.806 365.844C479.14 364.977 479.307 363.969 479.307 362.818C479.307 361.682 479.143 360.687 478.817 359.835C478.49 358.983 478.01 358.319 477.378 357.843C476.746 357.367 475.965 357.129 475.035 357.129C474.076 357.129 473.277 357.378 472.638 357.875C471.998 358.372 471.515 359.05 471.189 359.91C470.869 360.769 470.709 361.739 470.709 362.818C470.709 363.912 470.873 364.896 471.199 365.769C471.526 366.643 472.009 367.335 472.648 367.847C473.295 368.351 474.09 368.603 475.035 368.603ZM493.878 371.33C492.344 371.33 491.005 370.979 489.862 370.276C488.718 369.572 487.83 368.589 487.198 367.325C486.566 366.06 486.25 364.583 486.25 362.893C486.25 361.195 486.566 359.711 487.198 358.44C487.83 357.168 488.718 356.181 489.862 355.478C491.005 354.775 492.344 354.423 493.878 354.423C495.412 354.423 496.751 354.775 497.894 355.478C499.038 356.181 499.925 357.168 500.558 358.44C501.19 359.711 501.506 361.195 501.506 362.893C501.506 364.583 501.19 366.06 500.558 367.325C499.925 368.589 499.038 369.572 497.894 370.276C496.751 370.979 495.412 371.33 493.878 371.33ZM493.888 368.656C494.883 368.656 495.707 368.393 496.36 367.868C497.013 367.342 497.496 366.643 497.809 365.769C498.129 364.896 498.288 363.933 498.288 362.882C498.288 361.838 498.129 360.879 497.809 360.006C497.496 359.125 497.013 358.418 496.36 357.886C495.707 357.353 494.883 357.087 493.888 357.087C492.887 357.087 492.056 357.353 491.396 357.886C490.742 358.418 490.256 359.125 489.936 360.006C489.624 360.879 489.467 361.838 489.467 362.882C489.467 363.933 489.624 364.896 489.936 365.769C490.256 366.643 490.742 367.342 491.396 367.868C492.056 368.393 492.887 368.656 493.888 368.656ZM508.545 364.725V364.523C508.559 363.202 508.691 362.151 508.939 361.369C509.195 360.588 509.557 359.956 510.026 359.473C510.494 358.99 511.059 358.55 511.72 358.152C512.146 357.882 512.529 357.58 512.87 357.246C513.211 356.913 513.481 356.529 513.68 356.096C513.879 355.663 513.978 355.183 513.978 354.658C513.978 354.026 513.829 353.479 513.531 353.017C513.232 352.555 512.835 352.2 512.338 351.952C511.847 351.696 511.301 351.568 510.697 351.568C510.15 351.568 509.628 351.682 509.131 351.909C508.634 352.136 508.222 352.491 507.895 352.974C507.568 353.45 507.38 354.065 507.33 354.817H504.092C504.142 353.539 504.465 352.46 505.061 351.579C505.658 350.691 506.446 350.02 507.426 349.565C508.414 349.111 509.504 348.884 510.697 348.884C512.004 348.884 513.147 349.129 514.127 349.619C515.107 350.102 515.867 350.78 516.407 351.653C516.954 352.52 517.227 353.532 517.227 354.69C517.227 355.485 517.103 356.202 516.855 356.842C516.606 357.474 516.251 358.038 515.789 358.536C515.335 359.033 514.788 359.473 514.149 359.857C513.545 360.233 513.055 360.624 512.678 361.028C512.309 361.433 512.039 361.913 511.869 362.467C511.698 363.021 511.606 363.706 511.592 364.523V364.725H508.545ZM510.154 371.202C509.571 371.202 509.07 370.996 508.651 370.585C508.232 370.165 508.023 369.661 508.023 369.072C508.023 368.489 508.232 367.992 508.651 367.58C509.07 367.161 509.571 366.952 510.154 366.952C510.729 366.952 511.226 367.161 511.645 367.58C512.071 367.992 512.284 368.489 512.284 369.072C512.284 369.462 512.185 369.821 511.986 370.148C511.794 370.467 511.539 370.723 511.219 370.915C510.899 371.107 510.544 371.202 510.154 371.202Z" fill="white"/>
</g>
<path d="M170.023 184V160.727H174.943V170.989H175.25L183.625 160.727H189.523L180.886 171.148L189.625 184H183.739L177.364 174.432L174.943 177.386V184H170.023ZM198.668 184.341C196.872 184.341 195.327 183.977 194.031 183.25C192.743 182.515 191.751 181.477 191.054 180.136C190.357 178.788 190.009 177.193 190.009 175.352C190.009 173.557 190.357 171.981 191.054 170.625C191.751 169.269 192.732 168.212 193.997 167.455C195.27 166.697 196.762 166.318 198.474 166.318C199.626 166.318 200.698 166.504 201.69 166.875C202.69 167.239 203.562 167.788 204.304 168.523C205.054 169.258 205.637 170.182 206.054 171.295C206.471 172.402 206.679 173.697 206.679 175.182V176.511H191.94V173.511H202.122C202.122 172.814 201.971 172.197 201.668 171.659C201.365 171.121 200.944 170.701 200.406 170.398C199.876 170.087 199.259 169.932 198.554 169.932C197.819 169.932 197.168 170.102 196.599 170.443C196.039 170.777 195.599 171.227 195.281 171.795C194.963 172.356 194.8 172.981 194.793 173.67V176.523C194.793 177.386 194.952 178.133 195.27 178.761C195.596 179.39 196.054 179.875 196.645 180.216C197.236 180.557 197.937 180.727 198.747 180.727C199.285 180.727 199.777 180.652 200.224 180.5C200.671 180.348 201.054 180.121 201.372 179.818C201.69 179.515 201.933 179.144 202.099 178.705L206.577 179C206.349 180.076 205.884 181.015 205.179 181.818C204.482 182.614 203.58 183.235 202.474 183.682C201.376 184.121 200.107 184.341 198.668 184.341ZM209.838 184V166.545H214.531V169.591H214.713C215.031 168.508 215.565 167.689 216.315 167.136C217.065 166.576 217.929 166.295 218.906 166.295C219.149 166.295 219.41 166.311 219.69 166.341C219.971 166.371 220.217 166.413 220.429 166.466V170.761C220.202 170.693 219.887 170.633 219.486 170.58C219.084 170.527 218.717 170.5 218.384 170.5C217.671 170.5 217.035 170.655 216.474 170.966C215.921 171.269 215.482 171.693 215.156 172.239C214.838 172.784 214.679 173.413 214.679 174.125V184H209.838ZM227.773 173.909V184H222.932V166.545H227.545V169.625H227.75C228.136 168.61 228.784 167.807 229.693 167.216C230.602 166.617 231.705 166.318 233 166.318C234.212 166.318 235.269 166.583 236.17 167.114C237.072 167.644 237.773 168.402 238.273 169.386C238.773 170.364 239.023 171.53 239.023 172.886V184H234.182V173.75C234.189 172.682 233.917 171.848 233.364 171.25C232.811 170.644 232.049 170.341 231.08 170.341C230.428 170.341 229.852 170.481 229.352 170.761C228.86 171.042 228.473 171.451 228.193 171.989C227.92 172.519 227.78 173.159 227.773 173.909ZM250.793 184.341C248.997 184.341 247.452 183.977 246.156 183.25C244.868 182.515 243.876 181.477 243.179 180.136C242.482 178.788 242.134 177.193 242.134 175.352C242.134 173.557 242.482 171.981 243.179 170.625C243.876 169.269 244.857 168.212 246.122 167.455C247.395 166.697 248.887 166.318 250.599 166.318C251.751 166.318 252.823 166.504 253.815 166.875C254.815 167.239 255.687 167.788 256.429 168.523C257.179 169.258 257.762 170.182 258.179 171.295C258.596 172.402 258.804 173.697 258.804 175.182V176.511H244.065V173.511H254.247C254.247 172.814 254.096 172.197 253.793 171.659C253.49 171.121 253.069 170.701 252.531 170.398C252.001 170.087 251.384 169.932 250.679 169.932C249.944 169.932 249.293 170.102 248.724 170.443C248.164 170.777 247.724 171.227 247.406 171.795C247.088 172.356 246.925 172.981 246.918 173.67V176.523C246.918 177.386 247.077 178.133 247.395 178.761C247.721 179.39 248.179 179.875 248.77 180.216C249.361 180.557 250.062 180.727 250.872 180.727C251.41 180.727 251.902 180.652 252.349 180.5C252.796 180.348 253.179 180.121 253.497 179.818C253.815 179.515 254.058 179.144 254.224 178.705L258.702 179C258.474 180.076 258.009 181.015 257.304 181.818C256.607 182.614 255.705 183.235 254.599 183.682C253.501 184.121 252.232 184.341 250.793 184.341ZM266.804 160.727V184H261.963V160.727H266.804Z" fill="black"/>
<path d="M474.398 289.727H479.318V304.841C479.318 306.538 478.913 308.023 478.102 309.295C477.299 310.568 476.174 311.561 474.727 312.273C473.28 312.977 471.595 313.33 469.67 313.33C467.739 313.33 466.049 312.977 464.602 312.273C463.155 311.561 462.03 310.568 461.227 309.295C460.424 308.023 460.023 306.538 460.023 304.841V289.727H464.943V304.42C464.943 305.307 465.136 306.095 465.523 306.784C465.917 307.473 466.47 308.015 467.182 308.409C467.894 308.803 468.723 309 469.67 309C470.625 309 471.455 308.803 472.159 308.409C472.871 308.015 473.42 307.473 473.807 306.784C474.201 306.095 474.398 305.307 474.398 304.42V289.727ZM497.798 300.523L493.366 300.795C493.291 300.417 493.128 300.076 492.878 299.773C492.628 299.462 492.298 299.216 491.889 299.034C491.488 298.845 491.007 298.75 490.446 298.75C489.696 298.75 489.063 298.909 488.548 299.227C488.033 299.538 487.776 299.955 487.776 300.477C487.776 300.894 487.942 301.246 488.276 301.534C488.609 301.822 489.181 302.053 489.991 302.227L493.151 302.864C494.848 303.212 496.113 303.773 496.946 304.545C497.779 305.318 498.196 306.333 498.196 307.591C498.196 308.735 497.859 309.739 497.185 310.602C496.518 311.466 495.601 312.14 494.435 312.625C493.276 313.102 491.938 313.341 490.423 313.341C488.113 313.341 486.272 312.86 484.901 311.898C483.537 310.928 482.738 309.61 482.503 307.943L487.264 307.693C487.408 308.398 487.757 308.936 488.31 309.307C488.863 309.67 489.571 309.852 490.435 309.852C491.283 309.852 491.965 309.689 492.48 309.364C493.003 309.03 493.268 308.602 493.276 308.08C493.268 307.64 493.082 307.28 492.719 307C492.355 306.712 491.795 306.492 491.037 306.341L488.014 305.739C486.31 305.398 485.041 304.807 484.207 303.966C483.382 303.125 482.969 302.053 482.969 300.75C482.969 299.629 483.272 298.663 483.878 297.852C484.491 297.042 485.351 296.417 486.457 295.977C487.571 295.538 488.874 295.318 490.366 295.318C492.571 295.318 494.306 295.784 495.571 296.716C496.844 297.648 497.586 298.917 497.798 300.523ZM509.199 313.341C507.403 313.341 505.858 312.977 504.562 312.25C503.275 311.515 502.282 310.477 501.585 309.136C500.888 307.788 500.54 306.193 500.54 304.352C500.54 302.557 500.888 300.981 501.585 299.625C502.282 298.269 503.263 297.212 504.528 296.455C505.801 295.697 507.294 295.318 509.006 295.318C510.157 295.318 511.229 295.504 512.222 295.875C513.222 296.239 514.093 296.788 514.835 297.523C515.585 298.258 516.169 299.182 516.585 300.295C517.002 301.402 517.21 302.697 517.21 304.182V305.511H502.472V302.511H512.653C512.653 301.814 512.502 301.197 512.199 300.659C511.896 300.121 511.475 299.701 510.938 299.398C510.407 299.087 509.79 298.932 509.085 298.932C508.35 298.932 507.699 299.102 507.131 299.443C506.57 299.777 506.131 300.227 505.812 300.795C505.494 301.356 505.331 301.981 505.324 302.67V305.523C505.324 306.386 505.483 307.133 505.801 307.761C506.127 308.39 506.585 308.875 507.176 309.216C507.767 309.557 508.468 309.727 509.278 309.727C509.816 309.727 510.309 309.652 510.756 309.5C511.203 309.348 511.585 309.121 511.903 308.818C512.222 308.515 512.464 308.144 512.631 307.705L517.108 308C516.881 309.076 516.415 310.015 515.71 310.818C515.013 311.614 514.112 312.235 513.006 312.682C511.907 313.121 510.638 313.341 509.199 313.341ZM520.369 313V295.545H525.062V298.591H525.244C525.563 297.508 526.097 296.689 526.847 296.136C527.597 295.576 528.46 295.295 529.438 295.295C529.68 295.295 529.941 295.311 530.222 295.341C530.502 295.371 530.748 295.413 530.96 295.466V299.761C530.733 299.693 530.419 299.633 530.017 299.58C529.616 299.527 529.248 299.5 528.915 299.5C528.203 299.5 527.566 299.655 527.006 299.966C526.453 300.269 526.013 300.693 525.688 301.239C525.369 301.784 525.21 302.413 525.21 303.125V313H520.369Z" fill="black"/>
<path d="M505 109H574C582.284 109 589 115.716 589 124V161H520C511.716 161 505 154.284 505 146V109Z" fill="#FFCACA"/>
<path d="M505 109H574C582.284 109 589 115.716 589 124V161H520C511.716 161 505 154.284 505 146V109Z" stroke="#FF8181" stroke-width="2"/>
<path d="M542.307 123.818L546.602 131.438H546.807L551.153 123.818H559.08L551.256 136.909L559.386 150H551.256L546.807 142.227H546.602L542.153 150H534.074L542.102 136.909L534.33 123.818H542.307Z" fill="white"/>
<rect x="135" y="630" width="432" height="75.44" rx="12.48" fill="#F5F5F5"/>
<path opacity="0.5" d="M162.021 658.702H164.48L170.264 672.828H170.463L176.247 658.702H178.707V675.72H176.779V662.79H176.613L171.294 675.72H169.433L164.115 662.79H163.949V675.72H162.021V658.702ZM187.924 675.986C186.694 675.986 185.633 675.714 184.742 675.172C183.855 674.623 183.171 673.859 182.689 672.878C182.213 671.892 181.974 670.745 181.974 669.438C181.974 668.13 182.213 666.978 182.689 665.981C183.171 664.978 183.841 664.197 184.7 663.638C185.564 663.073 186.572 662.79 187.725 662.79C188.389 662.79 189.046 662.901 189.694 663.123C190.342 663.344 190.932 663.704 191.464 664.203C191.996 664.696 192.42 665.35 192.735 666.164C193.051 666.978 193.209 667.981 193.209 669.172V670.003H183.37V668.308H191.215C191.215 667.588 191.071 666.945 190.783 666.38C190.5 665.815 190.096 665.369 189.569 665.042C189.049 664.715 188.434 664.552 187.725 664.552C186.944 664.552 186.268 664.746 185.697 665.133C185.132 665.516 184.697 666.014 184.392 666.629C184.088 667.244 183.935 667.903 183.935 668.607V669.737C183.935 670.701 184.102 671.518 184.434 672.188C184.772 672.853 185.24 673.36 185.838 673.709C186.437 674.052 187.132 674.224 187.924 674.224C188.439 674.224 188.905 674.152 189.32 674.008C189.741 673.859 190.104 673.637 190.409 673.343C190.713 673.044 190.949 672.673 191.115 672.23L193.01 672.762C192.81 673.404 192.475 673.969 192.004 674.457C191.533 674.939 190.952 675.316 190.259 675.587C189.567 675.853 188.788 675.986 187.924 675.986ZM205.233 665.815L203.471 666.313C203.361 666.02 203.197 665.735 202.981 665.458C202.771 665.175 202.483 664.942 202.117 664.76C201.751 664.577 201.283 664.485 200.713 664.485C199.932 664.485 199.281 664.665 198.76 665.025C198.245 665.38 197.987 665.831 197.987 666.38C197.987 666.867 198.164 667.252 198.519 667.535C198.873 667.817 199.427 668.053 200.181 668.241L202.075 668.707C203.217 668.984 204.067 669.407 204.627 669.978C205.186 670.543 205.466 671.272 205.466 672.163C205.466 672.895 205.255 673.548 204.834 674.125C204.419 674.701 203.837 675.155 203.089 675.487C202.341 675.82 201.472 675.986 200.48 675.986C199.178 675.986 198.101 675.703 197.248 675.138C196.394 674.573 195.854 673.748 195.627 672.662L197.489 672.197C197.666 672.884 198.001 673.399 198.494 673.742C198.993 674.086 199.643 674.257 200.447 674.257C201.361 674.257 202.087 674.064 202.624 673.676C203.167 673.282 203.438 672.812 203.438 672.263C203.438 671.82 203.283 671.449 202.973 671.15C202.663 670.845 202.186 670.618 201.544 670.468L199.416 669.97C198.247 669.693 197.389 669.263 196.84 668.682C196.297 668.094 196.026 667.36 196.026 666.48C196.026 665.759 196.228 665.122 196.633 664.568C197.043 664.014 197.599 663.58 198.303 663.264C199.012 662.948 199.815 662.79 200.713 662.79C201.976 662.79 202.967 663.067 203.688 663.621C204.413 664.175 204.928 664.906 205.233 665.815ZM217.459 665.815L215.697 666.313C215.586 666.02 215.423 665.735 215.207 665.458C214.996 665.175 214.708 664.942 214.343 664.76C213.977 664.577 213.509 664.485 212.938 664.485C212.157 664.485 211.506 664.665 210.985 665.025C210.47 665.38 210.213 665.831 210.213 666.38C210.213 666.867 210.39 667.252 210.745 667.535C211.099 667.817 211.653 668.053 212.406 668.241L214.301 668.707C215.442 668.984 216.293 669.407 216.852 669.978C217.412 670.543 217.691 671.272 217.691 672.163C217.691 672.895 217.481 673.548 217.06 674.125C216.644 674.701 216.063 675.155 215.315 675.487C214.567 675.82 213.697 675.986 212.706 675.986C211.404 675.986 210.326 675.703 209.473 675.138C208.62 674.573 208.08 673.748 207.853 672.662L209.714 672.197C209.891 672.884 210.227 673.399 210.72 673.742C211.218 674.086 211.869 674.257 212.672 674.257C213.586 674.257 214.312 674.064 214.849 673.676C215.392 673.282 215.664 672.812 215.664 672.263C215.664 671.82 215.509 671.449 215.198 671.15C214.888 670.845 214.412 670.618 213.769 670.468L211.642 669.97C210.473 669.693 209.614 669.263 209.066 668.682C208.523 668.094 208.252 667.36 208.252 666.48C208.252 665.759 208.454 665.122 208.858 664.568C209.268 664.014 209.825 663.58 210.528 663.264C211.238 662.948 212.041 662.79 212.938 662.79C214.201 662.79 215.193 663.067 215.913 663.621C216.639 664.175 217.154 664.906 217.459 665.815ZM224.399 676.019C223.591 676.019 222.857 675.867 222.197 675.562C221.538 675.252 221.015 674.806 220.627 674.224C220.239 673.637 220.045 672.928 220.045 672.097C220.045 671.366 220.189 670.773 220.477 670.319C220.765 669.859 221.15 669.499 221.632 669.238C222.114 668.978 222.646 668.784 223.228 668.657C223.815 668.524 224.405 668.419 224.998 668.341C225.773 668.241 226.402 668.166 226.884 668.117C227.371 668.061 227.726 667.97 227.948 667.842C228.175 667.715 228.288 667.493 228.288 667.178V667.111C228.288 666.291 228.064 665.654 227.615 665.2C227.172 664.746 226.499 664.519 225.596 664.519C224.66 664.519 223.926 664.724 223.394 665.133C222.862 665.543 222.488 665.981 222.272 666.446L220.411 665.782C220.743 665.006 221.186 664.402 221.74 663.97C222.3 663.532 222.909 663.228 223.568 663.056C224.233 662.879 224.887 662.79 225.529 662.79C225.939 662.79 226.41 662.84 226.942 662.94C227.479 663.034 227.997 663.231 228.496 663.53C229 663.829 229.418 664.28 229.751 664.884C230.083 665.488 230.249 666.297 230.249 667.311V675.72H228.288V673.992H228.189C228.056 674.269 227.834 674.565 227.524 674.881C227.214 675.196 226.801 675.465 226.286 675.687C225.77 675.908 225.142 676.019 224.399 676.019ZM224.699 674.257C225.474 674.257 226.128 674.105 226.66 673.8C227.197 673.496 227.601 673.102 227.873 672.62C228.15 672.139 228.288 671.632 228.288 671.1V669.305C228.205 669.405 228.022 669.496 227.74 669.579C227.463 669.657 227.142 669.726 226.776 669.787C226.416 669.842 226.064 669.892 225.721 669.936C225.383 669.975 225.108 670.008 224.898 670.036C224.388 670.103 223.912 670.211 223.469 670.36C223.031 670.504 222.676 670.723 222.405 671.017C222.139 671.305 222.006 671.698 222.006 672.197C222.006 672.878 222.258 673.393 222.762 673.742C223.272 674.086 223.917 674.257 224.699 674.257ZM238.981 680.772C238.033 680.772 237.219 680.65 236.538 680.407C235.856 680.168 235.288 679.853 234.834 679.459C234.385 679.072 234.028 678.656 233.762 678.213L235.324 677.116C235.502 677.349 235.726 677.615 235.998 677.914C236.269 678.218 236.64 678.482 237.111 678.703C237.587 678.93 238.211 679.044 238.981 679.044C240.011 679.044 240.861 678.795 241.532 678.296C242.202 677.797 242.537 677.016 242.537 675.953V673.36H242.371C242.227 673.593 242.022 673.881 241.756 674.224C241.496 674.562 241.119 674.864 240.626 675.13C240.139 675.39 239.479 675.521 238.648 675.521C237.618 675.521 236.693 675.277 235.873 674.789C235.059 674.302 234.413 673.593 233.937 672.662C233.466 671.731 233.23 670.601 233.23 669.272C233.23 667.964 233.46 666.826 233.92 665.856C234.38 664.881 235.02 664.128 235.84 663.596C236.66 663.059 237.607 662.79 238.682 662.79C239.513 662.79 240.172 662.929 240.659 663.206C241.152 663.477 241.529 663.787 241.789 664.136C242.055 664.48 242.26 664.762 242.404 664.984H242.604V662.956H244.498V676.086C244.498 677.182 244.249 678.074 243.75 678.761C243.257 679.454 242.593 679.961 241.756 680.282C240.925 680.609 240 680.772 238.981 680.772ZM238.914 673.759C239.701 673.759 240.366 673.579 240.909 673.219C241.451 672.859 241.864 672.341 242.147 671.665C242.429 670.989 242.571 670.18 242.571 669.238C242.571 668.319 242.432 667.507 242.155 666.804C241.878 666.1 241.468 665.549 240.925 665.15C240.382 664.751 239.712 664.552 238.914 664.552C238.083 664.552 237.391 664.762 236.837 665.183C236.288 665.604 235.876 666.169 235.599 666.878C235.327 667.588 235.192 668.374 235.192 669.238C235.192 670.125 235.33 670.909 235.607 671.59C235.89 672.266 236.305 672.798 236.853 673.186C237.407 673.568 238.094 673.759 238.914 673.759ZM253.44 675.986C252.21 675.986 251.149 675.714 250.257 675.172C249.371 674.623 248.686 673.859 248.204 672.878C247.728 671.892 247.49 670.745 247.49 669.438C247.49 668.13 247.728 666.978 248.204 665.981C248.686 664.978 249.357 664.197 250.215 663.638C251.08 663.073 252.088 662.79 253.24 662.79C253.905 662.79 254.561 662.901 255.209 663.123C255.858 663.344 256.448 663.704 256.979 664.203C257.511 664.696 257.935 665.35 258.251 666.164C258.567 666.978 258.724 667.981 258.724 669.172V670.003H248.886V668.308H256.73C256.73 667.588 256.586 666.945 256.298 666.38C256.016 665.815 255.611 665.369 255.085 665.042C254.564 664.715 253.949 664.552 253.24 664.552C252.459 664.552 251.783 664.746 251.213 665.133C250.647 665.516 250.213 666.014 249.908 666.629C249.603 667.244 249.451 667.903 249.451 668.607V669.737C249.451 670.701 249.617 671.518 249.949 672.188C250.287 672.853 250.756 673.36 251.354 673.709C251.952 674.052 252.647 674.224 253.44 674.224C253.955 674.224 254.42 674.152 254.836 674.008C255.257 673.859 255.619 673.637 255.924 673.343C256.229 673.044 256.464 672.673 256.63 672.23L258.525 672.762C258.326 673.404 257.99 673.969 257.52 674.457C257.049 674.939 256.467 675.316 255.775 675.587C255.082 675.853 254.304 675.986 253.44 675.986Z" fill="black"/>
<path d="M485 630H554.52C561.413 630 567 635.587 567 642.48V692.52C567 699.413 561.413 705 554.52 705H485V630Z" fill="black"/>
<path d="M539.713 652.196L510.741 668.383C509.609 669.012 509.753 670.538 510.878 670.998L517.523 673.698L535.481 658.37C535.825 658.073 536.312 658.528 536.018 658.873L520.961 676.639V681.513C520.961 682.941 522.742 683.504 523.617 682.469L527.586 677.79L535.375 680.95C536.262 681.313 537.275 680.774 537.437 679.848L541.938 653.697C542.15 652.474 540.794 651.59 539.713 652.196Z" fill="white"/>
</g>
<defs>
<filter id="filter0_d_4_2" x="0" y="0" width="702" height="846" filterUnits="userSpaceOnUse" color-interpolation-filters="sRGB">
<feFlood flood-opacity="0" result="BackgroundImageFix"/>
<feColorMatrix in="SourceAlpha" type="matrix" values="0 0 0 0 0 0 0 0 0 0 0 0 0 0 0 0 0 0 127 0" result="hardAlpha"/>
<feOffset dy="4"/>
<feGaussianBlur stdDeviation="55"/>
<feComposite in2="hardAlpha" operator="out"/>
<feColorMatrix type="matrix" values="0 0 0 0 0 0 0 0 0 0 0 0 0 0 0 0 0 0 0.2 0"/>
<feBlend mode="normal" in2="BackgroundImageFix" result="effect1_dropShadow_4_2"/>
<feBlend mode="normal" in="SourceGraphic" in2="effect1_dropShadow_4_2" result="shape"/>
</filter>
<clipPath id="clip0_4_2">
<path d="M187 339C187 333.477 191.477 329 197 329H530C535.523 329 540 333.477 540 339V382C540 387.523 535.523 392 530 392H197C191.477 392 187 387.523 187 382V339Z" fill="white"/>
</clipPath>
</defs>
</svg>
