<svg width="66" height="49" viewBox="0 0 66 49" fill="none" xmlns="http://www.w3.org/2000/svg">
<path d="M6.097 0.129562C2.73095 0.129562 0 2.86051 0 6.22655C0 8.14456 0.901847 9.94825 2.4388 11.1041L30.0785 31.8339C31.5266 32.9136 33.5081 32.9136 34.9561 31.8339L62.5958 11.1041C64.1328 9.94825 65.0346 8.14456 65.0346 6.22655C65.0346 2.86051 62.3037 0.129562 58.9376 0.129562H6.097ZM0 14.3559V40.7762C0 45.26 3.6455 48.9055 8.12933 48.9055H56.9053C61.3891 48.9055 65.0346 45.26 65.0346 40.7762V14.3559L37.3949 35.0856C34.4988 37.2577 30.5358 37.2577 27.6397 35.0856L0 14.3559Z" fill="black"/>
</svg>
