<svg width="59" height="55" viewBox="0 0 59 55" fill="none" xmlns="http://www.w3.org/2000/svg">
<path d="M20.0321 44.27C20.0321 44.4932 19.7671 44.6717 19.4331 44.6717C19.0529 44.7052 18.7879 44.5266 18.7879 44.27C18.7879 44.0468 19.0529 43.8682 19.387 43.8682C19.7326 43.8347 20.0321 44.0133 20.0321 44.27ZM16.4494 43.7678C16.3687 43.991 16.5991 44.2476 16.9447 44.3146C17.2443 44.4262 17.5898 44.3146 17.659 44.0914C17.7281 43.8682 17.5092 43.6115 17.1636 43.5111C16.8641 43.433 16.53 43.5446 16.4494 43.7678ZM21.5412 43.578C21.2071 43.6562 20.9767 43.8682 21.0113 44.1249C21.0458 44.3481 21.3454 44.4932 21.691 44.415C22.025 44.3369 22.2554 44.1249 22.2209 43.9017C22.1863 43.6896 21.8753 43.5446 21.5412 43.578ZM29.1214 0.812925C13.1431 0.812925 0.92041 12.5644 0.92041 28.0433C0.92041 40.4198 8.96137 51.0106 20.4468 54.7381C21.9214 54.9947 22.4398 54.1131 22.4398 53.3877C22.4398 52.6958 22.4052 48.879 22.4052 46.5354C22.4052 46.5354 14.3412 48.2094 12.6478 43.2098C12.6478 43.2098 11.3345 39.9622 9.44521 39.1252C9.44521 39.1252 6.80713 37.3731 9.62953 37.4066C9.62953 37.4066 12.498 37.6298 14.0762 40.2858C16.5991 44.5936 20.827 43.3548 22.4743 42.6183C22.7393 40.8327 23.4881 39.5939 24.3175 38.8574C17.8778 38.1654 11.3806 37.2615 11.3806 26.5256C11.3806 23.4566 12.2561 21.9165 14.0993 19.9523C13.7998 19.2269 12.8206 16.236 14.3988 12.3747C16.8065 11.6493 22.3476 15.3879 22.3476 15.3879C24.6516 14.7629 27.1284 14.4393 29.5822 14.4393C32.0359 14.4393 34.5127 14.7629 36.8167 15.3879C36.8167 15.3879 42.3578 11.6381 44.7655 12.3747C46.3438 16.2472 45.3646 19.2269 45.0651 19.9523C46.9082 21.9276 48.0372 23.4677 48.0372 26.5256C48.0372 37.295 41.2519 38.1543 34.8123 38.8574C35.8721 39.739 36.7707 41.413 36.7707 44.0356C36.7707 47.7965 36.7361 52.4502 36.7361 53.3654C36.7361 54.0908 37.266 54.9724 38.729 54.7157C50.2491 51.0106 58.0596 40.4198 58.0596 28.0433C58.0596 12.5644 45.0996 0.812925 29.1214 0.812925ZM12.1178 39.3038C11.9681 39.4154 12.0027 39.672 12.1985 39.8841C12.3828 40.0626 12.6478 40.1408 12.7975 39.9957C12.9473 39.8841 12.9127 39.6274 12.7169 39.4154C12.5326 39.2368 12.2676 39.1587 12.1178 39.3038ZM10.8737 38.3998C10.793 38.5449 10.9082 38.7234 11.1386 38.835C11.323 38.9466 11.5534 38.9132 11.634 38.7569C11.7147 38.6118 11.5994 38.4333 11.3691 38.3217C11.1386 38.2547 10.9543 38.2882 10.8737 38.3998ZM14.6062 42.3728C14.4219 42.5178 14.491 42.8526 14.7559 43.0647C15.0209 43.3214 15.355 43.3548 15.5047 43.1763C15.6545 43.0312 15.5854 42.6964 15.355 42.4844C15.1015 42.2277 14.7559 42.1942 14.6062 42.3728ZM13.2929 40.7322C13.1086 40.8438 13.1086 41.134 13.2929 41.3907C13.4772 41.6474 13.7882 41.759 13.938 41.6474C14.1223 41.5023 14.1223 41.2121 13.938 40.9555C13.7767 40.6988 13.4772 40.5872 13.2929 40.7322Z" fill="black"/>
</svg>
