<svg width="21" height="22" viewBox="0 0 21 22" fill="none" xmlns="http://www.w3.org/2000/svg">
<path d="M20.5996 13.5176L18.7276 12.4366C18.9165 11.417 18.9165 10.3711 18.7276 9.3516L20.5996 8.27055C20.815 8.1475 20.9116 7.89262 20.8413 7.65531C20.3535 6.09086 19.523 4.67582 18.4375 3.49809C18.2705 3.31791 17.9981 3.27397 17.7871 3.39701L15.9151 4.47807C15.1284 3.80131 14.2232 3.27836 13.2432 2.93559V0.777873C13.2432 0.531779 13.0718 0.316447 12.8301 0.263713C11.2173 -0.0966385 9.56497 -0.0790604 8.03127 0.263713C7.78958 0.316447 7.61819 0.531779 7.61819 0.777873V2.93998C6.6426 3.28715 5.73733 3.8101 4.94631 4.48246L3.07864 3.40141C2.86331 3.27836 2.59524 3.31791 2.42825 3.50248C1.3428 4.67582 0.512232 6.09086 0.0244388 7.65971C-0.0502682 7.89701 0.050806 8.1519 0.266138 8.27494L2.13821 9.356C1.94924 10.3755 1.94924 11.4214 2.13821 12.441L0.266138 13.522C0.050806 13.6451 -0.0458737 13.8999 0.0244388 14.1372C0.512232 15.7017 1.3428 17.1167 2.42825 18.2945C2.59524 18.4746 2.8677 18.5186 3.07864 18.3955L4.95071 17.3145C5.73733 17.9913 6.6426 18.5142 7.62258 18.857V21.0191C7.62258 21.2652 7.79397 21.4805 8.03567 21.5332C9.64846 21.8936 11.3008 21.876 12.8345 21.5332C13.0762 21.4805 13.2476 21.2652 13.2476 21.0191V18.857C14.2232 18.5098 15.1284 17.9869 15.9195 17.3145L17.7915 18.3955C18.0069 18.5186 18.2749 18.479 18.4419 18.2945C19.5274 17.1211 20.3579 15.7061 20.8457 14.1372C20.9116 13.8955 20.815 13.6407 20.5996 13.5176ZM10.4307 14.4097C8.4927 14.4097 6.91506 12.8321 6.91506 10.8941C6.91506 8.9561 8.4927 7.37846 10.4307 7.37846C12.3687 7.37846 13.9463 8.9561 13.9463 10.8941C13.9463 12.8321 12.3687 14.4097 10.4307 14.4097Z" fill="white"/>
</svg>
