<svg width="60" height="49" viewBox="0 0 60 49" fill="none" xmlns="http://www.w3.org/2000/svg">
<path d="M53.8324 12.1446C53.8705 12.6776 53.8705 13.2107 53.8705 13.7436C53.8705 29.9999 41.4975 48.7309 18.8832 48.7309C11.9162 48.7309 5.44418 46.713 0 43.2107C0.989883 43.3248 1.94156 43.3629 2.96953 43.3629C8.71816 43.3629 14.0101 41.4213 18.236 38.1091C12.8299 37.9949 8.29945 34.4543 6.73852 29.5812C7.5 29.6953 8.26137 29.7715 9.06094 29.7715C10.165 29.7715 11.2691 29.6191 12.297 29.3528C6.66246 28.2105 2.43645 23.2614 2.43645 17.2842V17.132C4.07344 18.0457 5.97715 18.6168 7.99477 18.6928C4.68258 16.4846 2.51262 12.7157 2.51262 8.45168C2.51262 6.16746 3.12164 4.07355 4.1877 2.24613C10.241 9.70805 19.34 14.5811 29.543 15.1141C29.3527 14.2004 29.2384 13.2487 29.2384 12.297C29.2384 5.52023 34.7207 0 41.5354 0C45.0759 0 48.2739 1.48477 50.5201 3.88324C53.2992 3.35027 55.9642 2.3223 58.3247 0.913711C57.4109 3.7691 55.4693 6.16758 52.9186 7.69031C55.3932 7.42394 57.7917 6.73851 59.9998 5.78684C58.3249 8.22328 56.2309 10.3932 53.8324 12.1446Z" fill="black"/>
</svg>
